<mxfile host="Electron" agent="Mozilla/5.0 (Macintosh; Intel Mac OS X 10_15_7) AppleWebKit/537.36 (KHTML, like Gecko) draw.io/26.0.16 Chrome/132.0.6834.196 Electron/34.2.0 Safari/537.36" version="26.0.16">
  <diagram id="C5RBs43oDa-KdzZeNtuy" name="Page-1">
    <mxGraphModel dx="2363" dy="939" grid="1" gridSize="10" guides="1" tooltips="1" connect="1" arrows="1" fold="1" page="1" pageScale="1" pageWidth="827" pageHeight="1169" math="0" shadow="0">
      <root>
        <mxCell id="WIyWlLk6GJQsqaUBKTNV-0" />
        <mxCell id="WIyWlLk6GJQsqaUBKTNV-1" parent="WIyWlLk6GJQsqaUBKTNV-0" />
        <mxCell id="tdhdE12NGqEqcWBik6Mc-16" value="&lt;p style=&quot;margin:0px;margin-top:4px;text-align:center;&quot;&gt;&lt;b style=&quot;background-color: transparent; color: light-dark(rgb(0, 0, 0), rgb(255, 255, 255));&quot;&gt;SettingPageViewModel&lt;/b&gt;&lt;/p&gt;&lt;hr size=&quot;1&quot; style=&quot;border-style:solid;&quot;&gt;&lt;p style=&quot;margin:0px;margin-left:4px;&quot;&gt;+ LanguageChanged: EventHandler&amp;lt;EventArgs&amp;gt;?&lt;/p&gt;&lt;p style=&quot;margin:0px;margin-left:4px;&quot;&gt;+ LanguageChoice: CultureInfo&lt;/p&gt;&lt;p style=&quot;margin:0px;margin-left:4px;&quot;&gt;- languagePath: string&lt;/p&gt;&lt;p style=&quot;margin:0px;margin-left:4px;&quot;&gt;&lt;br&gt;&lt;/p&gt;&lt;p style=&quot;margin:0px;margin-left:4px;&quot;&gt;+ KmoniSettingsHelper:&lt;span style=&quot;background-color: transparent; color: light-dark(rgb(0, 0, 0), rgb(255, 255, 255));&quot;&gt;&amp;nbsp;IKmoniSettingsHelper&lt;/span&gt;&lt;/p&gt;&lt;p style=&quot;margin:0px;margin-left:4px;&quot;&gt;&lt;span style=&quot;background-color: transparent; color: light-dark(rgb(0, 0, 0), rgb(255, 255, 255));&quot;&gt;+ SensorTypeChoices: IEnumerable&amp;lt;SensorType&amp;gt;&lt;/span&gt;&lt;/p&gt;&lt;p style=&quot;margin:0px;margin-left:4px;&quot;&gt;&lt;span style=&quot;background-color: transparent; color: light-dark(rgb(0, 0, 0), rgb(255, 255, 255));&quot;&gt;+ MeasurementTypeChoices: IEnumerable&amp;lt;MeasurementType&amp;gt;&lt;/span&gt;&lt;/p&gt;&lt;p style=&quot;margin:0px;margin-left:4px;&quot;&gt;&lt;br class=&quot;Apple-interchange-newline&quot;&gt;+ WebSocketButtonText: string&lt;/p&gt;&lt;p style=&quot;margin:0px;margin-left:4px;&quot;&gt;+ WebSocketConnections&lt;/p&gt;&lt;p style=&quot;margin:0px;margin-left:4px;&quot;&gt;&amp;nbsp;: ObservableCollection&amp;lt;IWebSocketConnectionTemplate&amp;gt;&lt;/p&gt;&lt;p style=&quot;margin:0px;margin-left:4px;&quot;&gt;- _webSocketClient: _webSocketClient&lt;/p&gt;&lt;p style=&quot;margin:0px;margin-left:4px;&quot;&gt;- _startPost: WebSocketStartPost&lt;/p&gt;&lt;p style=&quot;margin:0px;margin-left:4px;&quot;&gt;&lt;br&gt;&lt;/p&gt;&lt;p style=&quot;margin:0px;margin-left:4px;&quot;&gt;+ OAuthButtonText: string&lt;/p&gt;&lt;p style=&quot;margin:0px;margin-left:4px;&quot;&gt;+ OAuthConnected: bool&lt;/p&gt;&lt;p style=&quot;margin:0px;margin-left:4px;&quot;&gt;+ ApiKeyConfirmed: bool&lt;/p&gt;&lt;p style=&quot;margin:0px;margin-left:4px;&quot;&gt;+ ApiKeyButtonEnabled: bool&lt;/p&gt;&lt;p style=&quot;margin:0px;margin-left:4px;&quot;&gt;+ ApiKeyText: string&lt;/p&gt;&lt;p style=&quot;margin:0px;margin-left:4px;&quot;&gt;+ AuthenticationStatus: AuthenticationStatus&lt;/p&gt;&lt;p style=&quot;margin:0px;margin-left:4px;&quot;&gt;&lt;br&gt;&lt;/p&gt;&lt;p style=&quot;margin:0px;margin-left:4px;&quot;&gt;- _logger: ILogger&amp;lt;SettingPageViewModel&amp;gt;&lt;br&gt;&lt;/p&gt;&lt;hr size=&quot;1&quot; style=&quot;border-style:solid;&quot;&gt;&lt;p style=&quot;margin:0px;margin-left:4px;&quot;&gt;- OnLanguageChoiceChanged(CultureInfo): None&lt;/p&gt;&lt;p style=&quot;margin:0px;margin-left:4px;&quot;&gt;- SetResourcesCultureInfo(CultureInfo): None&lt;/p&gt;&lt;p style=&quot;margin:0px;margin-left:4px;&quot;&gt;- GetCultureInfo(): CultureInfo&lt;/p&gt;&lt;p style=&quot;margin:0px;margin-left:4px;&quot;&gt;- LanguageChangedWriteToFileEventHandler(&lt;/p&gt;&lt;p style=&quot;margin:0px;margin-left:4px;&quot;&gt;&amp;nbsp; &amp;nbsp; object? EventArgs): None&lt;/p&gt;&lt;p style=&quot;margin:0px;margin-left:4px;&quot;&gt;&lt;br&gt;&lt;/p&gt;&lt;p style=&quot;margin:0px;margin-left:4px;&quot;&gt;+ WebSocketButtonCommand(): Task&lt;/p&gt;&lt;p style=&quot;margin:0px;margin-left:4px;&quot;&gt;+ WebSocketRefreshCommand(): Task&lt;/p&gt;&lt;p style=&quot;margin:0px;margin-left:4px;&quot;&gt;- WebSocketStatusChangedEventHandler(&lt;/p&gt;&lt;p style=&quot;margin:0px;margin-left:4px;&quot;&gt;&amp;nbsp; &amp;nbsp; object?, EventArgs): None&lt;/p&gt;&lt;p style=&quot;margin:0px;margin-left:4px;&quot;&gt;- GetTotalWebSocketSlots(): Task&amp;lt;int&amp;gt;&lt;/p&gt;&lt;p style=&quot;margin:0px;margin-left:4px;&quot;&gt;&lt;br&gt;&lt;/p&gt;&lt;p style=&quot;margin:0px;margin-left:4px;&quot;&gt;+ OAuthButtonCommand(): Task&lt;/p&gt;&lt;p style=&quot;margin:0px;margin-left:4px;&quot;&gt;+ ApiKeyButtonCommand(): Task&lt;/p&gt;&lt;p style=&quot;margin:0px;margin-left:4px;&quot;&gt;- OnApiKeyTextChanged(string): None&lt;/p&gt;&lt;p style=&quot;margin:0px;margin-left:4px;&quot;&gt;- AuthenticationStatusChangedEventHandler(&lt;/p&gt;&lt;p style=&quot;margin:0px;margin-left:4px;&quot;&gt;&amp;nbsp; &amp;nbsp; object?, AuthenticationStatusChangedEventArgs)&lt;/p&gt;&lt;p style=&quot;margin:0px;margin-left:4px;&quot;&gt;&amp;nbsp; &amp;nbsp; : None&lt;/p&gt;&lt;p style=&quot;margin:0px;margin-left:4px;&quot;&gt;&lt;br&gt;&lt;/p&gt;&lt;p style=&quot;margin: 0px 0px 0px 4px;&quot;&gt;+ SettingPageViewModel(&lt;/p&gt;&lt;p style=&quot;margin: 0px 0px 0px 4px;&quot;&gt;&amp;nbsp; &amp;nbsp; IOptions&amp;lt;WebSocketStartPost&amp;gt;,&lt;/p&gt;&lt;p style=&quot;margin: 0px 0px 0px 4px;&quot;&gt;&amp;nbsp; &amp;nbsp; IKmoniSettingsHelper,&lt;/p&gt;&lt;p style=&quot;margin: 0px 0px 0px 4px;&quot;&gt;&amp;nbsp; &amp;nbsp; IWebSocketClient,&lt;/p&gt;&lt;p style=&quot;margin: 0px 0px 0px 4px;&quot;&gt;&amp;nbsp; &amp;nbsp; IAuthenticationHelper,&lt;/p&gt;&lt;p style=&quot;margin: 0px 0px 0px 4px;&quot;&gt;&amp;nbsp; &amp;nbsp; IApiCaller,&lt;/p&gt;&lt;p style=&quot;margin: 0px 0px 0px 4px;&quot;&gt;&amp;nbsp; &amp;nbsp; ITelegramRetriever,&lt;/p&gt;&lt;p style=&quot;margin: 0px 0px 0px 4px;&quot;&gt;&amp;nbsp; &amp;nbsp; ITelegramParser,&lt;/p&gt;&lt;p style=&quot;margin: 0px 0px 0px 4px;&quot;&gt;&amp;nbsp; &amp;nbsp; ITimeProvider,&lt;/p&gt;&lt;p style=&quot;margin: 0px 0px 0px 4px;&quot;&gt;&amp;nbsp; &amp;nbsp; ILogger&amp;lt;SettingPageViewModel&amp;gt;): None&lt;/p&gt;" style="verticalAlign=top;align=left;overflow=fill;html=1;whiteSpace=wrap;fontFamily=Courier New;" parent="WIyWlLk6GJQsqaUBKTNV-1" vertex="1">
          <mxGeometry x="-800" y="40" width="393" height="790" as="geometry" />
        </mxCell>
        <mxCell id="zhHRSAdeT88JllKE28JX-0" value="&lt;p style=&quot;margin:0px;margin-top:4px;text-align:center;&quot;&gt;&lt;i&gt;&amp;lt;&amp;lt;Interface&amp;gt;&amp;gt;&lt;/i&gt;&lt;b&gt;&lt;/b&gt;&lt;/p&gt;&lt;p style=&quot;margin:0px;margin-top:4px;text-align:center;&quot;&gt;&lt;b&gt;IKmoniSettingsHelper&lt;/b&gt;&lt;/p&gt;&lt;p style=&quot;margin:0px;margin-left:4px;&quot;&gt;&lt;br&gt;&lt;/p&gt;" style="verticalAlign=top;align=left;overflow=fill;html=1;whiteSpace=wrap;fontFamily=Courier New;" vertex="1" parent="WIyWlLk6GJQsqaUBKTNV-1">
          <mxGeometry x="-320" y="40" width="177" height="40" as="geometry" />
        </mxCell>
        <mxCell id="zhHRSAdeT88JllKE28JX-2" value="&lt;p style=&quot;margin:0px;margin-top:4px;text-align:center;&quot;&gt;&lt;i&gt;&amp;lt;&amp;lt;Interface&amp;gt;&amp;gt;&lt;/i&gt;&lt;b&gt;&lt;/b&gt;&lt;/p&gt;&lt;p style=&quot;margin:0px;margin-top:4px;text-align:center;&quot;&gt;&lt;b&gt;IWebSocketConnectionTemplate&lt;/b&gt;&lt;/p&gt;&lt;hr size=&quot;1&quot; style=&quot;border-style:solid;&quot;&gt;&lt;p style=&quot;margin:0px;margin-left:4px;&quot;&gt;+ WebSocketId: int&lt;/p&gt;&lt;p style=&quot;margin:0px;margin-left:4px;&quot;&gt;+ ApplicationName: string?&lt;/p&gt;&lt;p style=&quot;margin:0px;margin-left:4px;&quot;&gt;+ StartTime: DateTimeOffset&lt;/p&gt;&lt;p style=&quot;margin:0px;margin-left:4px;&quot;&gt;+ IsEnabled: bool&lt;/p&gt;&lt;p style=&quot;margin:0px;margin-left:4px;&quot;&gt;+ DisconnectCommand: IAsyncRelayCommand&lt;/p&gt;&lt;hr size=&quot;1&quot; style=&quot;border-style:solid;&quot;&gt;&lt;p style=&quot;margin:0px;margin-left:4px;&quot;&gt;&lt;br&gt;&lt;/p&gt;" style="verticalAlign=top;align=left;overflow=fill;html=1;whiteSpace=wrap;fontFamily=Courier New;" vertex="1" parent="WIyWlLk6GJQsqaUBKTNV-1">
          <mxGeometry x="-320" y="240" width="290" height="140" as="geometry" />
        </mxCell>
        <mxCell id="zhHRSAdeT88JllKE28JX-3" value="&lt;p style=&quot;margin:0px;margin-top:4px;text-align:center;&quot;&gt;&lt;i&gt;&amp;lt;&amp;lt;Interface&amp;gt;&amp;gt;&lt;/i&gt;&lt;b&gt;&lt;/b&gt;&lt;/p&gt;&lt;p style=&quot;margin:0px;margin-top:4px;text-align:center;&quot;&gt;&lt;b&gt;IAuthenticatonHelper&lt;/b&gt;&lt;/p&gt;&lt;p style=&quot;margin:0px;margin-left:4px;&quot;&gt;&lt;br&gt;&lt;/p&gt;" style="verticalAlign=top;align=left;overflow=fill;html=1;whiteSpace=wrap;fontFamily=Courier New;" vertex="1" parent="WIyWlLk6GJQsqaUBKTNV-1">
          <mxGeometry x="-320" y="90" width="177" height="40" as="geometry" />
        </mxCell>
        <mxCell id="zhHRSAdeT88JllKE28JX-4" value="&lt;p style=&quot;margin:0px;margin-top:4px;text-align:center;&quot;&gt;&lt;b style=&quot;background-color: transparent; color: light-dark(rgb(0, 0, 0), rgb(255, 255, 255));&quot;&gt;EmptyWebSocketConnectionTemplate&lt;/b&gt;&lt;/p&gt;&lt;hr size=&quot;1&quot; style=&quot;border-style:solid;&quot;&gt;&lt;p style=&quot;margin:0px;margin-left:4px;&quot;&gt;+ WebSocketId: int&lt;/p&gt;&lt;p style=&quot;margin:0px;margin-left:4px;&quot;&gt;+ ApplicationName: string?&lt;/p&gt;&lt;p style=&quot;margin:0px;margin-left:4px;&quot;&gt;+ StartTime: DateTimeOffset&lt;/p&gt;&lt;p style=&quot;margin:0px;margin-left:4px;&quot;&gt;+ IsEnabled: bool&lt;/p&gt;&lt;p style=&quot;margin:0px;margin-left:4px;&quot;&gt;+ DisconnectCommand: IAsyncRelayCommand&lt;/p&gt;&lt;p style=&quot;margin:0px;margin-left:4px;&quot;&gt;+ Instance&lt;/p&gt;&lt;p style=&quot;margin:0px;margin-left:4px;&quot;&gt;&amp;nbsp; &amp;nbsp; : EmptyWebSocketConenctionTemplate&lt;/p&gt;&lt;hr size=&quot;1&quot; style=&quot;border-style:solid;&quot;&gt;&lt;p style=&quot;margin:0px;margin-left:4px;&quot;&gt;- EmptyWebSocketConnectionTemplate()&lt;/p&gt;&lt;p style=&quot;margin:0px;margin-left:4px;&quot;&gt;&amp;nbsp; &amp;nbsp; : None&lt;/p&gt;" style="verticalAlign=top;align=left;overflow=fill;html=1;whiteSpace=wrap;fontFamily=Courier New;" vertex="1" parent="WIyWlLk6GJQsqaUBKTNV-1">
          <mxGeometry x="-320" y="410" width="290" height="180" as="geometry" />
        </mxCell>
        <mxCell id="zhHRSAdeT88JllKE28JX-5" value="&lt;p style=&quot;margin:0px;margin-top:4px;text-align:center;&quot;&gt;&lt;i&gt;&amp;lt;&amp;lt;Abstract&amp;gt;&amp;gt;&lt;/i&gt;&lt;b&gt;&lt;/b&gt;&lt;/p&gt;&lt;p style=&quot;margin:0px;margin-top:4px;text-align:center;&quot;&gt;&lt;b&gt;ObservableObject&lt;/b&gt;&lt;/p&gt;&lt;p style=&quot;margin:0px;margin-left:4px;&quot;&gt;&lt;br&gt;&lt;/p&gt;" style="verticalAlign=top;align=left;overflow=fill;html=1;whiteSpace=wrap;fontFamily=Courier New;" vertex="1" parent="WIyWlLk6GJQsqaUBKTNV-1">
          <mxGeometry x="-240" y="600" width="160" height="40" as="geometry" />
        </mxCell>
        <mxCell id="zhHRSAdeT88JllKE28JX-6" value="&lt;p style=&quot;margin:0px;margin-top:4px;text-align:center;&quot;&gt;&lt;b style=&quot;background-color: transparent; color: light-dark(rgb(0, 0, 0), rgb(255, 255, 255));&quot;&gt;WebSocketConnectionTemplate&lt;/b&gt;&lt;/p&gt;&lt;hr size=&quot;1&quot; style=&quot;border-style:solid;&quot;&gt;&lt;p style=&quot;margin:0px;margin-left:4px;&quot;&gt;+ WebSocketId: int&lt;/p&gt;&lt;p style=&quot;margin:0px;margin-left:4px;&quot;&gt;+ ApplicationName: string?&lt;/p&gt;&lt;p style=&quot;margin:0px;margin-left:4px;&quot;&gt;+ StartTime: DateTimeOffset&lt;/p&gt;&lt;p style=&quot;margin:0px;margin-left:4px;&quot;&gt;+ IsEnabled: bool&lt;/p&gt;&lt;p style=&quot;margin:0px;margin-left:4px;&quot;&gt;+ DisconnectCommand: IAsyncRelayCommand&lt;/p&gt;&lt;hr size=&quot;1&quot; style=&quot;border-style:solid;&quot;&gt;&lt;p style=&quot;margin:0px;margin-left:4px;&quot;&gt;+&amp;nbsp; WebSocketConnectionTemplate(&lt;/p&gt;&lt;p style=&quot;margin:0px;margin-left:4px;&quot;&gt;&amp;nbsp; &amp;nbsp; WebSocketDetails, Func&amp;lt;Task&amp;lt;bool&amp;gt;&amp;gt;: bool&lt;/p&gt;" style="verticalAlign=top;align=left;overflow=fill;html=1;whiteSpace=wrap;fontFamily=Courier New;" vertex="1" parent="WIyWlLk6GJQsqaUBKTNV-1">
          <mxGeometry x="-358.5" y="680" width="328.5" height="150" as="geometry" />
        </mxCell>
        <mxCell id="zhHRSAdeT88JllKE28JX-7" value="" style="endArrow=diamondThin;endFill=0;endSize=24;html=1;rounded=0;exitX=0;exitY=0.5;exitDx=0;exitDy=0;entryX=1;entryY=0.25;entryDx=0;entryDy=0;edgeStyle=elbowEdgeStyle;" edge="1" parent="WIyWlLk6GJQsqaUBKTNV-1" source="zhHRSAdeT88JllKE28JX-0" target="tdhdE12NGqEqcWBik6Mc-16">
          <mxGeometry width="160" relative="1" as="geometry">
            <mxPoint x="-470" y="460" as="sourcePoint" />
            <mxPoint x="-310" y="460" as="targetPoint" />
          </mxGeometry>
        </mxCell>
        <mxCell id="zhHRSAdeT88JllKE28JX-8" value="" style="endArrow=diamondThin;endFill=1;endSize=24;html=1;rounded=0;edgeStyle=elbowEdgeStyle;exitX=0;exitY=0.5;exitDx=0;exitDy=0;entryX=1;entryY=0.5;entryDx=0;entryDy=0;" edge="1" parent="WIyWlLk6GJQsqaUBKTNV-1" source="zhHRSAdeT88JllKE28JX-2" target="tdhdE12NGqEqcWBik6Mc-16">
          <mxGeometry width="160" relative="1" as="geometry">
            <mxPoint x="-470" y="460" as="sourcePoint" />
            <mxPoint x="-310" y="460" as="targetPoint" />
          </mxGeometry>
        </mxCell>
        <mxCell id="zhHRSAdeT88JllKE28JX-9" value="" style="endArrow=diamondThin;endFill=0;endSize=24;html=1;rounded=0;exitX=0;exitY=0.5;exitDx=0;exitDy=0;entryX=1;entryY=0.25;entryDx=0;entryDy=0;edgeStyle=elbowEdgeStyle;" edge="1" parent="WIyWlLk6GJQsqaUBKTNV-1" source="zhHRSAdeT88JllKE28JX-3" target="tdhdE12NGqEqcWBik6Mc-16">
          <mxGeometry width="160" relative="1" as="geometry">
            <mxPoint x="-470" y="460" as="sourcePoint" />
            <mxPoint x="-310" y="460" as="targetPoint" />
          </mxGeometry>
        </mxCell>
        <mxCell id="zhHRSAdeT88JllKE28JX-10" value="" style="endArrow=block;dashed=1;endFill=0;endSize=12;html=1;rounded=0;entryX=0.5;entryY=1;entryDx=0;entryDy=0;exitX=0.5;exitY=0;exitDx=0;exitDy=0;" edge="1" parent="WIyWlLk6GJQsqaUBKTNV-1" source="zhHRSAdeT88JllKE28JX-4" target="zhHRSAdeT88JllKE28JX-2">
          <mxGeometry width="160" relative="1" as="geometry">
            <mxPoint x="-470" y="500" as="sourcePoint" />
            <mxPoint x="-310" y="500" as="targetPoint" />
          </mxGeometry>
        </mxCell>
        <mxCell id="zhHRSAdeT88JllKE28JX-11" value="" style="endArrow=block;dashed=1;endFill=0;endSize=12;html=1;rounded=0;entryX=0.5;entryY=1;entryDx=0;entryDy=0;exitX=0.25;exitY=0;exitDx=0;exitDy=0;edgeStyle=orthogonalEdgeStyle;" edge="1" parent="WIyWlLk6GJQsqaUBKTNV-1" source="zhHRSAdeT88JllKE28JX-6" target="zhHRSAdeT88JllKE28JX-2">
          <mxGeometry width="160" relative="1" as="geometry">
            <mxPoint x="-470" y="500" as="sourcePoint" />
            <mxPoint x="-310" y="500" as="targetPoint" />
            <Array as="points">
              <mxPoint x="-276" y="630" />
              <mxPoint x="-340" y="630" />
              <mxPoint x="-340" y="400" />
              <mxPoint x="-175" y="400" />
            </Array>
          </mxGeometry>
        </mxCell>
        <mxCell id="zhHRSAdeT88JllKE28JX-12" value="" style="endArrow=block;endSize=16;endFill=0;html=1;rounded=0;exitX=0.75;exitY=0;exitDx=0;exitDy=0;entryX=0.5;entryY=1;entryDx=0;entryDy=0;edgeStyle=elbowEdgeStyle;elbow=vertical;" edge="1" parent="WIyWlLk6GJQsqaUBKTNV-1" source="zhHRSAdeT88JllKE28JX-6" target="zhHRSAdeT88JllKE28JX-5">
          <mxGeometry width="160" relative="1" as="geometry">
            <mxPoint x="-470" y="500" as="sourcePoint" />
            <mxPoint x="-310" y="500" as="targetPoint" />
            <Array as="points">
              <mxPoint x="-140" y="670" />
            </Array>
          </mxGeometry>
        </mxCell>
        <mxCell id="zhHRSAdeT88JllKE28JX-14" value="&lt;p style=&quot;margin:0px;margin-top:4px;text-align:center;&quot;&gt;&lt;i&gt;&amp;lt;&amp;lt;Interface&amp;gt;&amp;gt;&lt;/i&gt;&lt;b&gt;&lt;/b&gt;&lt;/p&gt;&lt;p style=&quot;margin:0px;margin-top:4px;text-align:center;&quot;&gt;&lt;b&gt;IWebSocketClient&lt;/b&gt;&lt;/p&gt;&lt;p style=&quot;margin:0px;margin-left:4px;&quot;&gt;&lt;br&gt;&lt;/p&gt;" style="verticalAlign=top;align=left;overflow=fill;html=1;whiteSpace=wrap;fontFamily=Courier New;" vertex="1" parent="WIyWlLk6GJQsqaUBKTNV-1">
          <mxGeometry x="-320" y="140" width="177" height="40" as="geometry" />
        </mxCell>
        <mxCell id="zhHRSAdeT88JllKE28JX-15" value="&lt;p style=&quot;margin:0px;margin-top:4px;text-align:center;&quot;&gt;&lt;i&gt;&amp;lt;&amp;lt;Interface&amp;gt;&amp;gt;&lt;/i&gt;&lt;b&gt;&lt;/b&gt;&lt;/p&gt;&lt;p style=&quot;margin:0px;margin-top:4px;text-align:center;&quot;&gt;&lt;b&gt;IApiCaller&lt;/b&gt;&lt;/p&gt;&lt;p style=&quot;margin:0px;margin-left:4px;&quot;&gt;&lt;br&gt;&lt;/p&gt;" style="verticalAlign=top;align=left;overflow=fill;html=1;whiteSpace=wrap;fontFamily=Courier New;" vertex="1" parent="WIyWlLk6GJQsqaUBKTNV-1">
          <mxGeometry x="-320" y="190" width="177" height="40" as="geometry" />
        </mxCell>
        <mxCell id="zhHRSAdeT88JllKE28JX-16" value="" style="endArrow=diamondThin;endFill=0;endSize=24;html=1;rounded=0;exitX=0;exitY=0.5;exitDx=0;exitDy=0;entryX=1;entryY=0.25;entryDx=0;entryDy=0;edgeStyle=elbowEdgeStyle;" edge="1" parent="WIyWlLk6GJQsqaUBKTNV-1" source="zhHRSAdeT88JllKE28JX-14" target="tdhdE12NGqEqcWBik6Mc-16">
          <mxGeometry width="160" relative="1" as="geometry">
            <mxPoint x="-310" y="120" as="sourcePoint" />
            <mxPoint x="-397" y="248" as="targetPoint" />
          </mxGeometry>
        </mxCell>
        <mxCell id="zhHRSAdeT88JllKE28JX-17" value="" style="endArrow=diamondThin;endFill=0;endSize=24;html=1;rounded=0;exitX=0;exitY=0.5;exitDx=0;exitDy=0;entryX=1;entryY=0.25;entryDx=0;entryDy=0;edgeStyle=elbowEdgeStyle;" edge="1" parent="WIyWlLk6GJQsqaUBKTNV-1" source="zhHRSAdeT88JllKE28JX-15" target="tdhdE12NGqEqcWBik6Mc-16">
          <mxGeometry width="160" relative="1" as="geometry">
            <mxPoint x="-310" y="170" as="sourcePoint" />
            <mxPoint x="-397" y="248" as="targetPoint" />
          </mxGeometry>
        </mxCell>
      </root>
    </mxGraphModel>
  </diagram>
</mxfile>
